<svg xmlns="http://www.w3.org/2000/svg" version="1.1" xmlns:xlink="http://www.w3.org/1999/xlink" xmlns:svgjs="http://svgjs.dev/svgjs" width="1000" height="1000" viewBox="0 0 1000 1000"><rect width="1000" height="1000" fill="#ffffff"></rect><g transform="matrix(0.7,0,0,0.7,149.57575759513634,409.8051492249257)"><svg viewBox="0 0 396 102" data-background-color="#010536" preserveAspectRatio="xMidYMid meet" height="257" width="1000" xmlns="http://www.w3.org/2000/svg" xmlns:xlink="http://www.w3.org/1999/xlink"><defs></defs><g id="tight-bounds" transform="matrix(1,0,0,1,0.24000001096283086,0.13882589804103418)"><svg viewBox="0 0 395.52 101.7223482039179" height="101.7223482039179" width="395.52"><g><svg viewBox="0 0 571.7420425869469 147.04425348616675" height="101.7223482039179" width="395.52"><g transform="matrix(1,0,0,1,0,42.62340228487905)"><svg viewBox="0 0 395.52 61.79744891640866" height="61.79744891640866" width="395.52"><g><svg viewBox="0 0 395.52 61.79744891640866" height="61.79744891640866" width="395.52"><g><svg viewBox="0 0 395.52 61.79744891640866" height="61.79744891640866" width="395.52"><g transform="matrix(1,0,0,1,0,0)"><svg width="395.52" viewBox="0.9800000190734863 -36.380001068115234 238.02000427246094 36.970001220703125" height="61.79744891640866" data-palette-color="#fbfbf8"><g class="undefined-text-0" data-fill-palette-color="primary" id="text-0"><path d="M33.64-19.58Q33.89-20.65 34.08-21.7 34.28-22.75 34.28-23.88L34.28-23.88Q34.28-26.07 33.5-27.51 32.71-28.96 31.37-29.81 30.03-30.66 28.3-30.98 26.56-31.3 24.66-31.3L24.66-31.3Q23.49-31.3 21.97-31.13 20.46-30.96 18.87-30.59 17.29-30.22 15.72-29.64 14.16-29.05 12.96-28.17 11.77-27.29 11.01-26.1 10.25-24.9 10.25-23.39L10.25-23.39Q10.25-22.07 11.21-21.12 12.16-20.17 13.65-19.48 15.14-18.8 16.99-18.36 18.85-17.92 20.65-17.6 22.46-17.29 24.02-17.11 25.59-16.94 26.51-16.8L26.51-16.8Q27.69-16.6 29.37-16.33 31.05-16.06 32.86-15.63 34.67-15.19 36.45-14.55 38.23-13.92 39.65-13.01 41.06-12.11 41.94-10.91 42.82-9.72 42.82-8.15L42.82-8.15Q42.82-6.49 41.92-5.22 41.02-3.96 39.53-3 38.04-2.05 36.21-1.44 34.38-0.83 32.5-0.44 30.62-0.05 28.91 0.1 27.2 0.24 26.03 0.24L26.03 0.24Q20.85 0.24 15.77-0.61 10.69-1.46 5.86-3.37L5.86-3.37Q5.37-3.56 4.74-3.83 4.1-4.1 3.42-4.39 2.73-4.69 2.1-4.88 1.46-5.08 0.98-5.13L0.98-5.13Q1.27-5.42 1.88-5.96 2.49-6.49 3.1-7.13 3.71-7.76 4.22-8.33 4.74-8.89 4.83-9.18L4.83-9.18Q9.13-6.54 14.23-5.27 19.34-4 24.37-4L24.37-4Q25.2-4 26.98-4.13 28.76-4.25 30.54-4.64 32.32-5.03 33.67-5.74 35.01-6.45 35.01-7.62L35.01-7.62Q35.01-9.18 33.62-10.11 32.23-11.04 29.93-11.65 27.64-12.26 24.71-12.62 21.78-12.99 18.73-13.43 15.67-13.87 12.74-14.48 9.81-15.09 7.52-16.14 5.22-17.19 3.83-18.8 2.44-20.41 2.44-22.85L2.44-22.85Q2.44-25.44 3.49-27.44 4.54-29.44 6.32-30.96 8.11-32.47 10.38-33.5 12.65-34.52 15.11-35.16 17.58-35.79 20.02-36.08 22.46-36.38 24.51-36.38L24.51-36.38Q27.93-36.38 31.01-35.84 34.08-35.3 36.35-33.89 38.62-32.47 39.97-29.93 41.31-27.39 41.31-23.39L41.31-23.39Q41.31-22.41 41.24-21.48 41.16-20.56 41.06-19.58L41.06-19.58 33.64-19.58ZM87.06 0L77.88 0Q77.93-0.05 77.93-0.2L77.93-0.2Q77.93-0.54 77.66-1.34 77.39-2.15 77.07-3.05 76.76-3.96 76.41-4.76 76.07-5.57 75.93-5.91L75.93-5.91Q70.75-6.1 65.55-6.05 60.35-6.01 55.17-5.81L55.17-5.81Q55.03-5.47 54.69-4.66 54.34-3.86 54.03-2.98 53.71-2.1 53.44-1.32 53.17-0.54 53.17-0.2L53.17-0.2Q53.17-0.05 53.22 0L53.22 0 44.09 0Q44.38-0.34 44.8-1.1 45.21-1.86 45.63-2.71 46.04-3.56 46.43-4.37 46.82-5.18 47.02-5.62L47.02-5.62Q47.56-6.69 48.73-9.08 49.9-11.47 51.34-14.53 52.78-17.58 54.32-20.92 55.86-24.27 57.13-27.25 58.4-30.22 59.2-32.47 60.01-34.72 60.01-35.55L60.01-35.55Q60.01-35.64 59.98-35.77 59.96-35.89 59.86-35.89L59.86-35.89 71.29-35.89Q71.19-35.89 71.16-35.77 71.14-35.64 71.14-35.55L71.14-35.55Q71.14-34.72 71.95-32.47 72.75-30.22 74.02-27.25 75.29-24.27 76.83-20.92 78.37-17.58 79.81-14.53 81.25-11.47 82.39-9.08 83.54-6.69 84.08-5.62L84.08-5.62Q84.27-5.18 84.67-4.37 85.06-3.56 85.5-2.71 85.94-1.86 86.35-1.1 86.77-0.34 87.06 0L87.06 0ZM57.18-10.45L59.23-10.4Q66.5-10.4 73.83-10.69L73.83-10.69Q71.82-15.14 69.85-19.48 67.87-23.83 65.57-28.08L65.57-28.08Q63.23-23.78 61.23-19.34 59.23-14.89 57.18-10.45L57.18-10.45ZM118.35-35.99Q118.11-35.84 117.99-34.94 117.87-34.03 117.84-32.98 117.82-31.93 117.82-30.96 117.82-29.98 117.82-29.69L117.82-29.69Q117.82-25.73 117.87-21.75 117.91-17.77 117.91-13.82L117.91-13.82Q117.91-9.62 116.23-6.84 114.55-4.05 111.81-2.42 109.08-0.78 105.61-0.1 102.14 0.59 98.58 0.59L98.58 0.59Q96.24 0.59 93.7 0.15 91.16-0.29 89.08-1.39 87.01-2.49 85.66-4.37 84.32-6.25 84.32-9.13L84.32-9.13Q84.32-10.06 84.52-11.04 84.71-12.01 85.2-12.84L85.2-12.84 92.33-11.67Q91.5-10.25 91.5-8.64L91.5-8.64Q91.5-6.93 92.3-5.81 93.11-4.69 94.38-4.03 95.65-3.37 97.14-3.1 98.63-2.83 100.04-2.83L100.04-2.83Q105.07-2.83 107.66-5.18 110.25-7.52 110.25-12.65L110.25-12.65 110.25-18.65Q110.25-18.99 110.27-20.36 110.3-21.73 110.3-23.61 110.3-25.49 110.27-27.59 110.25-29.69 110.18-31.49 110.1-33.3 109.93-34.55 109.76-35.79 109.52-35.99L109.52-35.99 118.35-35.99ZM151.9-35.99Q151.65-35.84 151.53-34.94 151.41-34.03 151.38-32.98 151.36-31.93 151.36-30.96 151.36-29.98 151.36-29.69L151.36-29.69Q151.36-25.73 151.41-21.75 151.46-17.77 151.46-13.82L151.46-13.82Q151.46-9.62 149.77-6.84 148.09-4.05 145.35-2.42 142.62-0.78 139.15-0.1 135.69 0.59 132.12 0.59L132.12 0.59Q129.78 0.59 127.24 0.15 124.7-0.29 122.62-1.39 120.55-2.49 119.21-4.37 117.86-6.25 117.86-9.13L117.86-9.13Q117.86-10.06 118.06-11.04 118.25-12.01 118.74-12.84L118.74-12.84 125.87-11.67Q125.04-10.25 125.04-8.64L125.04-8.64Q125.04-6.93 125.85-5.81 126.65-4.69 127.92-4.03 129.19-3.37 130.68-3.1 132.17-2.83 133.59-2.83L133.59-2.83Q138.62-2.83 141.2-5.18 143.79-7.52 143.79-12.65L143.79-12.65 143.79-18.65Q143.79-18.99 143.82-20.36 143.84-21.73 143.84-23.61 143.84-25.49 143.82-27.59 143.79-29.69 143.72-31.49 143.64-33.3 143.47-34.55 143.3-35.79 143.06-35.99L143.06-35.99 151.9-35.99ZM196.13 0L186.95 0Q187-0.05 187-0.2L187-0.2Q187-0.54 186.73-1.34 186.46-2.15 186.15-3.05 185.83-3.96 185.49-4.76 185.15-5.57 185-5.91L185-5.91Q179.82-6.1 174.62-6.05 169.42-6.01 164.25-5.81L164.25-5.81Q164.1-5.47 163.76-4.66 163.42-3.86 163.1-2.98 162.78-2.1 162.51-1.32 162.25-0.54 162.25-0.2L162.25-0.2Q162.25-0.05 162.29 0L162.29 0 153.16 0Q153.46-0.34 153.87-1.1 154.29-1.86 154.7-2.71 155.12-3.56 155.51-4.37 155.9-5.18 156.09-5.62L156.09-5.62Q156.63-6.69 157.8-9.08 158.97-11.47 160.41-14.53 161.86-17.58 163.39-20.92 164.93-24.27 166.2-27.25 167.47-30.22 168.28-32.47 169.08-34.72 169.08-35.55L169.08-35.55Q169.08-35.64 169.06-35.77 169.03-35.89 168.94-35.89L168.94-35.89 180.36-35.89Q180.26-35.89 180.24-35.77 180.21-35.64 180.21-35.55L180.21-35.55Q180.21-34.72 181.02-32.47 181.83-30.22 183.1-27.25 184.37-24.27 185.9-20.92 187.44-17.58 188.88-14.53 190.32-11.47 191.47-9.08 192.62-6.69 193.15-5.62L193.15-5.62Q193.35-5.18 193.74-4.37 194.13-3.56 194.57-2.71 195.01-1.86 195.42-1.1 195.84-0.34 196.13 0L196.13 0ZM166.25-10.45L168.3-10.4Q175.58-10.4 182.9-10.69L182.9-10.69Q180.9-15.14 178.92-19.48 176.94-23.83 174.65-28.08L174.65-28.08Q172.3-23.78 170.3-19.34 168.3-14.89 166.25-10.45L166.25-10.45ZM196.91-36.04L206.43-35.99Q209.31-35.99 212.88-35.57 216.44-35.16 220.06-34.25 223.67-33.35 227.09-31.84 230.51-30.32 233.14-28.15 235.78-25.98 237.39-23.05 239-20.12 239-16.36L239-16.36Q239-12.26 237.17-9.45 235.34-6.64 232.34-4.83 229.33-3.03 225.52-2.03 221.72-1.03 217.76-0.59 213.81-0.15 210.09-0.07 206.38 0 203.55 0L203.55 0 197.69 0Q197.84-0.29 197.94-1.46 198.03-2.64 198.11-4.27 198.18-5.91 198.23-7.81 198.28-9.72 198.3-11.4 198.33-13.09 198.33-14.38 198.33-15.67 198.33-16.16L198.33-16.16Q198.33-16.7 198.33-18.33 198.33-19.97 198.28-22.09 198.23-24.22 198.16-26.61 198.08-29 197.91-31.03 197.74-33.06 197.5-34.45 197.25-35.84 196.91-36.04L196.91-36.04ZM205.7-4.35L205.7-4.35Q206.34-4.35 206.97-4.32 207.6-4.3 208.24-4.3L208.24-4.3Q210.09-4.3 212.56-4.44 215.03-4.59 217.66-5.03 220.3-5.47 222.84-6.25 225.38-7.03 227.38-8.35 229.38-9.67 230.63-11.55 231.87-13.43 231.87-16.02L231.87-16.02Q231.87-18.85 230.77-21.09 229.68-23.34 227.84-25.07 226.01-26.81 223.6-28 221.18-29.2 218.57-29.98 215.95-30.76 213.32-31.1 210.68-31.45 208.39-31.45L208.39-31.45Q207.75-31.45 207.12-31.42 206.48-31.4 205.85-31.35L205.85-31.35Q205.6-27.39 205.55-23.49 205.51-19.58 205.51-15.63L205.51-15.63Q205.51-12.79 205.53-9.99 205.55-7.18 205.7-4.35Z" fill="#000000" data-fill-palette-color="primary"></path></g></svg></g></svg></g></svg></g></svg></g><g transform="matrix(1,0,0,1,424.69778910078014,0)"><svg viewBox="0 0 147.04425348616675 147.04425348616675" height="147.04425348616675" width="147.04425348616675"><g><svg></svg></g><g id="icon-0"><svg viewBox="0 0 147.04425348616675 147.04425348616675" height="147.04425348616675" width="147.04425348616675"><g><path d="M0 73.522c0-40.605 32.917-73.522 73.522-73.522 40.605 0 73.522 32.917 73.522 73.522 0 40.605-32.917 73.522-73.522 73.522-40.605 0-73.522-32.917-73.522-73.522zM73.522 141.471c37.527 0 67.949-30.422 67.949-67.949 0-37.527-30.422-67.949-67.949-67.949-37.527 0-67.949 30.422-67.949 67.949 0 37.527 30.422 67.949 67.949 67.949z" data-fill-palette-color="accent" fill="#000000" stroke="transparent"></path></g><g transform="matrix(1,0,0,1,39.91740870074264,34.11676215916461)"><svg viewBox="0 0 67.20943608468147 78.81072916783754" height="78.81072916783754" width="67.20943608468147"><g><svg xmlns="http://www.w3.org/2000/svg" xmlns:xlink="http://www.w3.org/1999/xlink" version="1.1" x="0" y="0" viewBox="7.4679999351501465 2 37.71999740600586 44.23099899291992" enable-background="new 0 0 50 50" xml:space="preserve" height="78.81072916783754" width="67.20943608468147" class="icon-x-0" data-fill-palette-color="accent" id="x-0"><g fill="#ffff00" data-fill-palette-color="accent"><path fill="#000000" d="M7.468 46.231h28.155c0.012 0 0.026-0.007 0.037-0.007l0 0c0.383 0 0.764-0.144 1.057-0.438l7.94-7.847c0.316-0.273 0.531-0.673 0.531-1.127V2H7.469v44.231H7.468zM37.121 41.166v-2.854h2.89L37.121 41.166zM10.466 5h31.722v30.317h-8.063v7.914H10.466V5L10.466 5z" data-fill-palette-color="accent"></path><path fill="#000000" d="M24.95 12.392c-0.587-0.583-1.534-0.583-2.122 0l-7.053 7.055c-0.021 0.021-0.051 0.026-0.069 0.045-0.298 0.295-0.438 0.686-0.438 1.071-0.004 0.388 0.139 0.777 0.438 1.069 0.023 0.021 0.051 0.027 0.069 0.051l7.053 7.049c0.294 0.295 0.678 0.44 1.06 0.44 0.382 0 0.769-0.149 1.063-0.44 0.583-0.584 0.583-1.533 0-2.118l-6.053-6.051 6.053-6.051C25.535 13.927 25.535 12.977 24.95 12.392z" data-fill-palette-color="accent"></path><path fill="#000000" d="M36.874 21.671c0.022-0.023 0.052-0.029 0.069-0.051 0.297-0.295 0.438-0.681 0.438-1.069 0.002-0.391-0.141-0.778-0.438-1.071-0.019-0.02-0.053-0.025-0.069-0.048l-7.051-7.053c-0.585-0.583-1.536-0.583-2.121 0-0.586 0.584-0.586 1.533 0 2.119l6.05 6.053-6.05 6.05c-0.586 0.586-0.586 1.534 0 2.121 0.292 0.293 0.677 0.438 1.061 0.438 0.386 0 0.766-0.151 1.062-0.438L36.874 21.671z" data-fill-palette-color="accent"></path></g></svg></g></svg></g></svg></g></svg></g></svg></g></svg><rect width="395.52" height="101.7223482039179" fill="none" stroke="none" visibility="hidden"></rect></g></svg></g></svg>